G04 #@! TF.GenerationSoftware,KiCad,Pcbnew,5.0.2*
G04 #@! TF.CreationDate,2020-07-19T07:30:29+02:00*
G04 #@! TF.ProjectId,pmod-ps2,706d6f64-2d70-4733-922e-6b696361645f,1*
G04 #@! TF.SameCoordinates,Original*
G04 #@! TF.FileFunction,Paste,Top*
G04 #@! TF.FilePolarity,Positive*
%FSLAX46Y46*%
G04 Gerber Fmt 4.6, Leading zero omitted, Abs format (unit mm)*
G04 Created by KiCad (PCBNEW 5.0.2) date dim. 19 juil. 2020 07:30:29 CEST*
%MOMM*%
%LPD*%
G01*
G04 APERTURE LIST*
%ADD10R,0.889000X1.397000*%
%ADD11R,0.635000X1.143000*%
%ADD12R,0.701040X1.000760*%
%ADD13R,1.143000X0.635000*%
%ADD14R,3.400000X1.300000*%
%ADD15R,0.914400X0.914400*%
%ADD16R,1.000760X0.701040*%
%ADD17R,1.143000X0.508000*%
G04 APERTURE END LIST*
D10*
G04 #@! TO.C,C1*
X132952500Y-114000000D03*
X131047500Y-114000000D03*
G04 #@! TD*
D11*
G04 #@! TO.C,L1*
X134738000Y-114000000D03*
X136262000Y-114000000D03*
G04 #@! TD*
D12*
G04 #@! TO.C,U2*
X145547500Y-110230000D03*
X146500000Y-110230000D03*
X147452500Y-110230000D03*
X147452500Y-112770000D03*
X146500000Y-112770000D03*
X145547500Y-112770000D03*
G04 #@! TD*
D13*
G04 #@! TO.C,C2*
X138000000Y-111012000D03*
X138000000Y-109488000D03*
G04 #@! TD*
D14*
G04 #@! TO.C,L2*
X141000000Y-109700000D03*
X141000000Y-113300000D03*
G04 #@! TD*
D13*
G04 #@! TO.C,C3*
X144000000Y-110238000D03*
X144000000Y-111762000D03*
G04 #@! TD*
D11*
G04 #@! TO.C,R1*
X149762000Y-108500000D03*
X148238000Y-108500000D03*
G04 #@! TD*
G04 #@! TO.C,R2*
X145728000Y-108500000D03*
X147252000Y-108500000D03*
G04 #@! TD*
D13*
G04 #@! TO.C,C4*
X149000000Y-110738000D03*
X149000000Y-112262000D03*
G04 #@! TD*
G04 #@! TO.C,C5*
X150750000Y-112262000D03*
X150750000Y-110738000D03*
G04 #@! TD*
D15*
G04 #@! TO.C,Q1*
X153516000Y-106000000D03*
X151484000Y-105111000D03*
X151484000Y-106889000D03*
G04 #@! TD*
G04 #@! TO.C,Q2*
X151484000Y-99389000D03*
X151484000Y-97611000D03*
X153516000Y-98500000D03*
G04 #@! TD*
D11*
G04 #@! TO.C,R3*
X153262000Y-108500000D03*
X151738000Y-108500000D03*
G04 #@! TD*
G04 #@! TO.C,R4*
X153262000Y-96000000D03*
X151738000Y-96000000D03*
G04 #@! TD*
G04 #@! TO.C,R5*
X148238000Y-106500000D03*
X149762000Y-106500000D03*
G04 #@! TD*
G04 #@! TO.C,R6*
X149762000Y-96000000D03*
X148238000Y-96000000D03*
G04 #@! TD*
D16*
G04 #@! TO.C,U3*
X147230000Y-102297500D03*
X147230000Y-103250000D03*
X147230000Y-104202500D03*
X149770000Y-104202500D03*
X149770000Y-103250000D03*
X149770000Y-102297500D03*
G04 #@! TD*
G04 #@! TO.C,U4*
X149770000Y-98547500D03*
X149770000Y-99500000D03*
X149770000Y-100452500D03*
X147230000Y-100452500D03*
X147230000Y-99500000D03*
X147230000Y-98547500D03*
G04 #@! TD*
D17*
G04 #@! TO.C,U1*
X138698000Y-99190000D03*
X138698000Y-100460000D03*
X138698000Y-101730000D03*
X138698000Y-103000000D03*
X138698000Y-104270000D03*
X138698000Y-105540000D03*
X138698000Y-106810000D03*
X145048000Y-106810000D03*
X145048000Y-105540000D03*
X145048000Y-103000000D03*
X145048000Y-101730000D03*
X145048000Y-100460000D03*
X145048000Y-99190000D03*
X145048000Y-104270000D03*
G04 #@! TD*
D13*
G04 #@! TO.C,C6*
X144000000Y-97012000D03*
X144000000Y-95488000D03*
G04 #@! TD*
G04 #@! TO.C,C7*
X140000000Y-95488000D03*
X140000000Y-97012000D03*
G04 #@! TD*
G04 #@! TO.C,R7*
X142000000Y-97012000D03*
X142000000Y-95488000D03*
G04 #@! TD*
M02*
