G04 #@! TF.GenerationSoftware,KiCad,Pcbnew,5.0.2*
G04 #@! TF.CreationDate,2020-07-19T07:30:29+02:00*
G04 #@! TF.ProjectId,pmod-ps2,706d6f64-2d70-4733-922e-6b696361645f,1*
G04 #@! TF.SameCoordinates,Original*
G04 #@! TF.FileFunction,Copper,L2,Bot*
G04 #@! TF.FilePolarity,Positive*
%FSLAX46Y46*%
G04 Gerber Fmt 4.6, Leading zero omitted, Abs format (unit mm)*
G04 Created by KiCad (PCBNEW 5.0.2) date dim. 19 juil. 2020 07:30:29 CEST*
%MOMM*%
%LPD*%
G01*
G04 APERTURE LIST*
G04 #@! TA.AperFunction,NonConductor*
%ADD10C,0.152400*%
G04 #@! TD*
G04 #@! TA.AperFunction,ComponentPad*
%ADD11R,2.000000X1.900000*%
G04 #@! TD*
G04 #@! TA.AperFunction,ComponentPad*
%ADD12C,1.900000*%
G04 #@! TD*
G04 #@! TA.AperFunction,ComponentPad*
%ADD13C,1.524000*%
G04 #@! TD*
G04 #@! TA.AperFunction,ComponentPad*
%ADD14R,2.800000X1.200000*%
G04 #@! TD*
G04 #@! TA.AperFunction,ComponentPad*
%ADD15R,1.200000X2.800000*%
G04 #@! TD*
G04 #@! TA.AperFunction,ViaPad*
%ADD16C,0.711200*%
G04 #@! TD*
G04 #@! TA.AperFunction,Conductor*
%ADD17C,0.406400*%
G04 #@! TD*
G04 #@! TA.AperFunction,Conductor*
%ADD18C,0.711200*%
G04 #@! TD*
G04 #@! TA.AperFunction,Conductor*
%ADD19C,0.304800*%
G04 #@! TD*
G04 #@! TA.AperFunction,Conductor*
%ADD20C,0.152400*%
G04 #@! TD*
G04 APERTURE END LIST*
D10*
X166416666Y-98166666D02*
X166416666Y-98642857D01*
X166702380Y-98071428D02*
X165702380Y-98404761D01*
X166702380Y-98738095D01*
X166035714Y-99500000D02*
X166845238Y-99500000D01*
X166940476Y-99452380D01*
X166988095Y-99404761D01*
X167035714Y-99309523D01*
X167035714Y-99166666D01*
X166988095Y-99071428D01*
X166654761Y-99500000D02*
X166702380Y-99404761D01*
X166702380Y-99214285D01*
X166654761Y-99119047D01*
X166607142Y-99071428D01*
X166511904Y-99023809D01*
X166226190Y-99023809D01*
X166130952Y-99071428D01*
X166083333Y-99119047D01*
X166035714Y-99214285D01*
X166035714Y-99404761D01*
X166083333Y-99500000D01*
X166702380Y-99976190D02*
X166035714Y-99976190D01*
X165702380Y-99976190D02*
X165750000Y-99928571D01*
X165797619Y-99976190D01*
X165750000Y-100023809D01*
X165702380Y-99976190D01*
X165797619Y-99976190D01*
X166702380Y-100595238D02*
X166654761Y-100500000D01*
X166559523Y-100452380D01*
X165702380Y-100452380D01*
X166702380Y-101404761D02*
X166178571Y-101404761D01*
X166083333Y-101357142D01*
X166035714Y-101261904D01*
X166035714Y-101071428D01*
X166083333Y-100976190D01*
X166654761Y-101404761D02*
X166702380Y-101309523D01*
X166702380Y-101071428D01*
X166654761Y-100976190D01*
X166559523Y-100928571D01*
X166464285Y-100928571D01*
X166369047Y-100976190D01*
X166321428Y-101071428D01*
X166321428Y-101309523D01*
X166273809Y-101404761D01*
X166654761Y-102309523D02*
X166702380Y-102214285D01*
X166702380Y-102023809D01*
X166654761Y-101928571D01*
X166607142Y-101880952D01*
X166511904Y-101833333D01*
X166226190Y-101833333D01*
X166130952Y-101880952D01*
X166083333Y-101928571D01*
X166035714Y-102023809D01*
X166035714Y-102214285D01*
X166083333Y-102309523D01*
X166702380Y-102738095D02*
X165702380Y-102738095D01*
X166321428Y-102833333D02*
X166702380Y-103119047D01*
X166035714Y-103119047D02*
X166416666Y-102738095D01*
X166607142Y-104880952D02*
X166654761Y-104833333D01*
X166702380Y-104690476D01*
X166702380Y-104595238D01*
X166654761Y-104452380D01*
X166559523Y-104357142D01*
X166464285Y-104309523D01*
X166273809Y-104261904D01*
X166130952Y-104261904D01*
X165940476Y-104309523D01*
X165845238Y-104357142D01*
X165750000Y-104452380D01*
X165702380Y-104595238D01*
X165702380Y-104690476D01*
X165750000Y-104833333D01*
X165797619Y-104880952D01*
X166607142Y-105880952D02*
X166654761Y-105833333D01*
X166702380Y-105690476D01*
X166702380Y-105595238D01*
X166654761Y-105452380D01*
X166559523Y-105357142D01*
X166464285Y-105309523D01*
X166273809Y-105261904D01*
X166130952Y-105261904D01*
X165940476Y-105309523D01*
X165845238Y-105357142D01*
X165750000Y-105452380D01*
X165702380Y-105595238D01*
X165702380Y-105690476D01*
X165750000Y-105833333D01*
X165797619Y-105880952D01*
X166321428Y-106309523D02*
X166321428Y-107071428D01*
X166702380Y-107547619D02*
X165702380Y-107547619D01*
X166083333Y-107547619D02*
X166035714Y-107642857D01*
X166035714Y-107833333D01*
X166083333Y-107928571D01*
X166130952Y-107976190D01*
X166226190Y-108023809D01*
X166511904Y-108023809D01*
X166607142Y-107976190D01*
X166654761Y-107928571D01*
X166702380Y-107833333D01*
X166702380Y-107642857D01*
X166654761Y-107547619D01*
X166035714Y-108357142D02*
X166702380Y-108595238D01*
X166035714Y-108833333D02*
X166702380Y-108595238D01*
X166940476Y-108500000D01*
X166988095Y-108452380D01*
X167035714Y-108357142D01*
X166321428Y-109214285D02*
X166321428Y-109976190D01*
X166654761Y-110404761D02*
X166702380Y-110547619D01*
X166702380Y-110785714D01*
X166654761Y-110880952D01*
X166607142Y-110928571D01*
X166511904Y-110976190D01*
X166416666Y-110976190D01*
X166321428Y-110928571D01*
X166273809Y-110880952D01*
X166226190Y-110785714D01*
X166178571Y-110595238D01*
X166130952Y-110500000D01*
X166083333Y-110452380D01*
X165988095Y-110404761D01*
X165892857Y-110404761D01*
X165797619Y-110452380D01*
X165750000Y-110500000D01*
X165702380Y-110595238D01*
X165702380Y-110833333D01*
X165750000Y-110976190D01*
X166416666Y-111357142D02*
X166416666Y-111833333D01*
X166702380Y-111261904D02*
X165702380Y-111595238D01*
X166702380Y-111928571D01*
D11*
G04 #@! TO.P,P1,1*
G04 #@! TO.N,Net-(P1-Pad1)*
X136040000Y-98650000D03*
D12*
G04 #@! TO.P,P1,2*
G04 #@! TO.N,PMOD_TXD*
X136040000Y-101190000D03*
G04 #@! TO.P,P1,3*
G04 #@! TO.N,PMOD_RXD*
X136040000Y-103730000D03*
G04 #@! TO.P,P1,4*
G04 #@! TO.N,Net-(P1-Pad4)*
X136040000Y-106270000D03*
G04 #@! TO.P,P1,5*
G04 #@! TO.N,GND*
X136040000Y-108810000D03*
G04 #@! TO.P,P1,6*
G04 #@! TO.N,VCC*
X136040000Y-111350000D03*
G04 #@! TO.P,P1,7*
G04 #@! TO.N,IRQ*
X133500000Y-98650000D03*
G04 #@! TO.P,P1,8*
G04 #@! TO.N,RST*
X133500000Y-101190000D03*
G04 #@! TO.P,P1,9*
G04 #@! TO.N,SWDIO*
X133500000Y-103730000D03*
G04 #@! TO.P,P1,10*
G04 #@! TO.N,SWCLK*
X133500000Y-106270000D03*
G04 #@! TO.P,P1,11*
G04 #@! TO.N,GND*
X133500000Y-108810000D03*
G04 #@! TO.P,P1,12*
G04 #@! TO.N,VCC*
X133500000Y-111350000D03*
G04 #@! TD*
D13*
G04 #@! TO.P,P2,1*
G04 #@! TO.N,Net-(P2-Pad1)*
X161000000Y-106300000D03*
G04 #@! TO.P,P2,2*
G04 #@! TO.N,Net-(P2-Pad2)*
X161000000Y-103700000D03*
G04 #@! TO.P,P2,3*
G04 #@! TO.N,GND*
X161000000Y-108400000D03*
G04 #@! TO.P,P2,4*
G04 #@! TO.N,+5V*
X161000000Y-101600000D03*
G04 #@! TO.P,P2,5*
G04 #@! TO.N,Net-(P2-Pad5)*
X163500000Y-108400000D03*
G04 #@! TO.P,P2,6*
G04 #@! TO.N,Net-(P2-Pad6)*
X163500000Y-101600000D03*
D14*
G04 #@! TO.P,P2,0*
G04 #@! TO.N,N/C*
X158000000Y-98250000D03*
X158000000Y-111750000D03*
D15*
X157200000Y-105000000D03*
G04 #@! TD*
D13*
G04 #@! TO.P,TP2,1*
G04 #@! TO.N,+5V*
X153500000Y-113000000D03*
G04 #@! TD*
D16*
G04 #@! TO.N,GND*
X145500000Y-111500000D03*
X146500000Y-114000000D03*
X140500000Y-108400000D03*
X144500000Y-114600000D03*
X142500000Y-114600000D03*
X140500000Y-114600000D03*
X138500000Y-114600000D03*
X142500000Y-108400000D03*
X144500000Y-108400000D03*
X138500000Y-108400000D03*
X148500000Y-114600000D03*
X150500000Y-114600000D03*
X152500000Y-114600000D03*
X149000000Y-113250000D03*
X150750000Y-113250000D03*
X131000000Y-112500000D03*
X166500000Y-114600000D03*
X154500000Y-114600000D03*
X148500000Y-103250000D03*
X148500000Y-99500000D03*
X152500000Y-106000000D03*
X143970000Y-103000000D03*
X130000000Y-105000000D03*
X138750000Y-95500000D03*
X145250000Y-95500000D03*
X142000000Y-99250000D03*
X130000000Y-95500000D03*
G04 #@! TO.N,+3.3V*
X147500000Y-114000000D03*
X143500000Y-109250000D03*
X144000000Y-98000000D03*
X146000000Y-98000000D03*
X146250000Y-101730000D03*
G04 #@! TO.N,+5V*
X149770000Y-97600000D03*
X154500000Y-97000000D03*
X150650000Y-101380000D03*
G04 #@! TO.N,SWDIO*
X140250000Y-105500000D03*
G04 #@! TD*
D17*
G04 #@! TO.N,GND*
X136040000Y-108810000D02*
X137000000Y-107850000D01*
X136040000Y-108810000D02*
X138000000Y-110770000D01*
X138000000Y-110770000D02*
X138000000Y-114100000D01*
X138000000Y-114100000D02*
X138500000Y-114600000D01*
X137000000Y-107850000D02*
X137950000Y-107850000D01*
X137950000Y-107850000D02*
X138500000Y-108400000D01*
X149000000Y-113250000D02*
X149000000Y-114100000D01*
X149000000Y-114100000D02*
X148500000Y-114600000D01*
X149000000Y-113250000D02*
X150750000Y-113250000D01*
X136040000Y-108810000D02*
X134770000Y-107540000D01*
X133500000Y-108810000D02*
X134770000Y-107540000D01*
X133500000Y-108810000D02*
X131000000Y-111310000D01*
X131000000Y-111310000D02*
X131000000Y-112500000D01*
D18*
X161000000Y-108400000D02*
X159230000Y-110170000D01*
X159230000Y-110170000D02*
X152220000Y-110170000D01*
X152220000Y-110170000D02*
X150750000Y-111640000D01*
X150750000Y-111640000D02*
X150750000Y-113250000D01*
D19*
X148500000Y-103250000D02*
X148500000Y-99500000D01*
D17*
X148500000Y-103250000D02*
X149750000Y-103250000D01*
X149750000Y-103250000D02*
X152500000Y-106000000D01*
X152220000Y-110170000D02*
X152220000Y-108160000D01*
X152220000Y-108160000D02*
X152500000Y-107880000D01*
X152500000Y-107880000D02*
X152500000Y-106000000D01*
X145700000Y-103000000D02*
X145950000Y-103250000D01*
X145950000Y-103250000D02*
X148500000Y-103250000D01*
X133500000Y-108810000D02*
X133500000Y-108500000D01*
X133500000Y-108500000D02*
X130000000Y-105000000D01*
X138750000Y-95500000D02*
X145250000Y-95500000D01*
X148500000Y-99500000D02*
X148500000Y-97560000D01*
X148500000Y-97560000D02*
X146440000Y-95500000D01*
X146440000Y-95500000D02*
X145250000Y-95500000D01*
X145700000Y-103000000D02*
X143970000Y-103000000D01*
X143970000Y-103000000D02*
X143970000Y-101220000D01*
X143970000Y-101220000D02*
X142000000Y-99250000D01*
X130000000Y-105000000D02*
X130000000Y-95500000D01*
D18*
X154500000Y-114600000D02*
X166500000Y-114600000D01*
D19*
G04 #@! TO.N,+3.3V*
X147500000Y-114000000D02*
X147500000Y-112060000D01*
X147500000Y-112060000D02*
X144690000Y-109250000D01*
X144690000Y-109250000D02*
X143500000Y-109250000D01*
D17*
X144000000Y-98000000D02*
X146000000Y-98000000D01*
D18*
X144000000Y-98000000D02*
X144000000Y-99480000D01*
X144000000Y-99480000D02*
X146250000Y-101730000D01*
G04 #@! TO.N,+5V*
X149770000Y-97600000D02*
X153900000Y-97600000D01*
X153900000Y-97600000D02*
X154500000Y-97000000D01*
X149770000Y-97600000D02*
X149770000Y-100500000D01*
X149770000Y-100500000D02*
X150650000Y-101380000D01*
D19*
G04 #@! TO.N,SWDIO*
X140250000Y-105500000D02*
X137360000Y-105500000D01*
X137360000Y-105500000D02*
X136860000Y-105000000D01*
X136860000Y-105000000D02*
X134770000Y-105000000D01*
X134770000Y-105000000D02*
X133500000Y-103730000D01*
G04 #@! TD*
D20*
G04 #@! TO.N,GND*
G36*
X167246400Y-97671390D02*
X165263300Y-97671390D01*
X165263300Y-112328609D01*
X167246401Y-112328609D01*
X167246401Y-114856400D01*
X129753600Y-114856400D01*
X129753600Y-111115562D01*
X132321400Y-111115562D01*
X132321400Y-111584438D01*
X132500831Y-112017623D01*
X132832377Y-112349169D01*
X133265562Y-112528600D01*
X133734438Y-112528600D01*
X134167623Y-112349169D01*
X134499169Y-112017623D01*
X134678600Y-111584438D01*
X134678600Y-111115562D01*
X134861400Y-111115562D01*
X134861400Y-111584438D01*
X135040831Y-112017623D01*
X135372377Y-112349169D01*
X135805562Y-112528600D01*
X136274438Y-112528600D01*
X136707623Y-112349169D01*
X137039169Y-112017623D01*
X137218600Y-111584438D01*
X137218600Y-111115562D01*
X137039169Y-110682377D01*
X136707623Y-110350831D01*
X136274438Y-110171400D01*
X135805562Y-110171400D01*
X135372377Y-110350831D01*
X135040831Y-110682377D01*
X134861400Y-111115562D01*
X134678600Y-111115562D01*
X134499169Y-110682377D01*
X134167623Y-110350831D01*
X133734438Y-110171400D01*
X133265562Y-110171400D01*
X132832377Y-110350831D01*
X132500831Y-110682377D01*
X132321400Y-111115562D01*
X129753600Y-111115562D01*
X129753600Y-109654435D01*
X132727407Y-109654435D01*
X132835393Y-109811178D01*
X133269118Y-109989302D01*
X133737992Y-109987888D01*
X134164607Y-109811178D01*
X134272593Y-109654435D01*
X135267407Y-109654435D01*
X135375393Y-109811178D01*
X135809118Y-109989302D01*
X136277992Y-109987888D01*
X136704607Y-109811178D01*
X136812593Y-109654435D01*
X136040000Y-108881842D01*
X135267407Y-109654435D01*
X134272593Y-109654435D01*
X133500000Y-108881842D01*
X132727407Y-109654435D01*
X129753600Y-109654435D01*
X129753600Y-108579118D01*
X132320698Y-108579118D01*
X132322112Y-109047992D01*
X132498822Y-109474607D01*
X132655565Y-109582593D01*
X133428158Y-108810000D01*
X133571842Y-108810000D01*
X134344435Y-109582593D01*
X134501178Y-109474607D01*
X134679302Y-109040882D01*
X134677910Y-108579118D01*
X134860698Y-108579118D01*
X134862112Y-109047992D01*
X135038822Y-109474607D01*
X135195565Y-109582593D01*
X135968158Y-108810000D01*
X136111842Y-108810000D01*
X136884435Y-109582593D01*
X137041178Y-109474607D01*
X137181144Y-109133795D01*
X142915800Y-109133795D01*
X142915800Y-109366205D01*
X143004739Y-109580923D01*
X143169077Y-109745261D01*
X143383795Y-109834200D01*
X143616205Y-109834200D01*
X143830923Y-109745261D01*
X143945184Y-109631000D01*
X144532185Y-109631000D01*
X147119001Y-112217817D01*
X147119000Y-113554816D01*
X147004739Y-113669077D01*
X146915800Y-113883795D01*
X146915800Y-114116205D01*
X147004739Y-114330923D01*
X147169077Y-114495261D01*
X147383795Y-114584200D01*
X147616205Y-114584200D01*
X147830923Y-114495261D01*
X147995261Y-114330923D01*
X148084200Y-114116205D01*
X148084200Y-113883795D01*
X147995261Y-113669077D01*
X147881000Y-113554816D01*
X147881000Y-112802957D01*
X152509400Y-112802957D01*
X152509400Y-113197043D01*
X152660210Y-113561130D01*
X152938870Y-113839790D01*
X153302957Y-113990600D01*
X153697043Y-113990600D01*
X154061130Y-113839790D01*
X154339790Y-113561130D01*
X154490600Y-113197043D01*
X154490600Y-112802957D01*
X154339790Y-112438870D01*
X154061130Y-112160210D01*
X153697043Y-112009400D01*
X153302957Y-112009400D01*
X152938870Y-112160210D01*
X152660210Y-112438870D01*
X152509400Y-112802957D01*
X147881000Y-112802957D01*
X147881000Y-112097523D01*
X147888464Y-112059999D01*
X147858894Y-111911341D01*
X147795941Y-111817125D01*
X147774686Y-111785314D01*
X147742874Y-111764058D01*
X147128816Y-111150000D01*
X156366922Y-111150000D01*
X156366922Y-112350000D01*
X156384664Y-112439195D01*
X156435189Y-112514811D01*
X156510805Y-112565336D01*
X156600000Y-112583078D01*
X159400000Y-112583078D01*
X159489195Y-112565336D01*
X159564811Y-112514811D01*
X159615336Y-112439195D01*
X159633078Y-112350000D01*
X159633078Y-111150000D01*
X159615336Y-111060805D01*
X159564811Y-110985189D01*
X159489195Y-110934664D01*
X159400000Y-110916922D01*
X156600000Y-110916922D01*
X156510805Y-110934664D01*
X156435189Y-110985189D01*
X156384664Y-111060805D01*
X156366922Y-111150000D01*
X147128816Y-111150000D01*
X145087551Y-109108735D01*
X160363108Y-109108735D01*
X160448182Y-109245939D01*
X160813914Y-109392717D01*
X161207975Y-109388363D01*
X161551818Y-109245939D01*
X161636892Y-109108735D01*
X161000000Y-108471842D01*
X160363108Y-109108735D01*
X145087551Y-109108735D01*
X144985944Y-109007129D01*
X144964686Y-108975314D01*
X144838659Y-108891106D01*
X144727524Y-108869000D01*
X144690000Y-108861536D01*
X144652476Y-108869000D01*
X143945184Y-108869000D01*
X143830923Y-108754739D01*
X143616205Y-108665800D01*
X143383795Y-108665800D01*
X143169077Y-108754739D01*
X143004739Y-108919077D01*
X142915800Y-109133795D01*
X137181144Y-109133795D01*
X137219302Y-109040882D01*
X137217888Y-108572008D01*
X137069561Y-108213914D01*
X160007283Y-108213914D01*
X160011637Y-108607975D01*
X160154061Y-108951818D01*
X160291265Y-109036892D01*
X160928158Y-108400000D01*
X161071842Y-108400000D01*
X161708735Y-109036892D01*
X161845939Y-108951818D01*
X161992717Y-108586086D01*
X161988484Y-108202957D01*
X162509400Y-108202957D01*
X162509400Y-108597043D01*
X162660210Y-108961130D01*
X162938870Y-109239790D01*
X163302957Y-109390600D01*
X163697043Y-109390600D01*
X164061130Y-109239790D01*
X164339790Y-108961130D01*
X164490600Y-108597043D01*
X164490600Y-108202957D01*
X164339790Y-107838870D01*
X164061130Y-107560210D01*
X163697043Y-107409400D01*
X163302957Y-107409400D01*
X162938870Y-107560210D01*
X162660210Y-107838870D01*
X162509400Y-108202957D01*
X161988484Y-108202957D01*
X161988363Y-108192025D01*
X161845939Y-107848182D01*
X161708735Y-107763108D01*
X161071842Y-108400000D01*
X160928158Y-108400000D01*
X160291265Y-107763108D01*
X160154061Y-107848182D01*
X160007283Y-108213914D01*
X137069561Y-108213914D01*
X137041178Y-108145393D01*
X136884435Y-108037407D01*
X136111842Y-108810000D01*
X135968158Y-108810000D01*
X135195565Y-108037407D01*
X135038822Y-108145393D01*
X134860698Y-108579118D01*
X134677910Y-108579118D01*
X134677888Y-108572008D01*
X134501178Y-108145393D01*
X134344435Y-108037407D01*
X133571842Y-108810000D01*
X133428158Y-108810000D01*
X132655565Y-108037407D01*
X132498822Y-108145393D01*
X132320698Y-108579118D01*
X129753600Y-108579118D01*
X129753600Y-107965565D01*
X132727407Y-107965565D01*
X133500000Y-108738158D01*
X134272593Y-107965565D01*
X135267407Y-107965565D01*
X136040000Y-108738158D01*
X136812593Y-107965565D01*
X136704607Y-107808822D01*
X136418361Y-107691265D01*
X160363108Y-107691265D01*
X161000000Y-108328158D01*
X161636892Y-107691265D01*
X161551818Y-107554061D01*
X161186086Y-107407283D01*
X160792025Y-107411637D01*
X160448182Y-107554061D01*
X160363108Y-107691265D01*
X136418361Y-107691265D01*
X136270882Y-107630698D01*
X135802008Y-107632112D01*
X135375393Y-107808822D01*
X135267407Y-107965565D01*
X134272593Y-107965565D01*
X134164607Y-107808822D01*
X133730882Y-107630698D01*
X133262008Y-107632112D01*
X132835393Y-107808822D01*
X132727407Y-107965565D01*
X129753600Y-107965565D01*
X129753600Y-106035562D01*
X132321400Y-106035562D01*
X132321400Y-106504438D01*
X132500831Y-106937623D01*
X132832377Y-107269169D01*
X133265562Y-107448600D01*
X133734438Y-107448600D01*
X134167623Y-107269169D01*
X134499169Y-106937623D01*
X134678600Y-106504438D01*
X134678600Y-106035562D01*
X134499169Y-105602377D01*
X134167623Y-105270831D01*
X133734438Y-105091400D01*
X133265562Y-105091400D01*
X132832377Y-105270831D01*
X132500831Y-105602377D01*
X132321400Y-106035562D01*
X129753600Y-106035562D01*
X129753600Y-103495562D01*
X132321400Y-103495562D01*
X132321400Y-103964438D01*
X132500831Y-104397623D01*
X132832377Y-104729169D01*
X133265562Y-104908600D01*
X133734438Y-104908600D01*
X134021062Y-104789877D01*
X134474056Y-105242871D01*
X134495314Y-105274686D01*
X134610037Y-105351341D01*
X134621341Y-105358894D01*
X134769999Y-105388464D01*
X134807523Y-105381000D01*
X135262208Y-105381000D01*
X135040831Y-105602377D01*
X134861400Y-106035562D01*
X134861400Y-106504438D01*
X135040831Y-106937623D01*
X135372377Y-107269169D01*
X135805562Y-107448600D01*
X136274438Y-107448600D01*
X136707623Y-107269169D01*
X137039169Y-106937623D01*
X137218600Y-106504438D01*
X137218600Y-106035562D01*
X137120196Y-105797993D01*
X137211341Y-105858894D01*
X137360000Y-105888464D01*
X137397524Y-105881000D01*
X139804816Y-105881000D01*
X139919077Y-105995261D01*
X140133795Y-106084200D01*
X140366205Y-106084200D01*
X140580923Y-105995261D01*
X140745261Y-105830923D01*
X140834200Y-105616205D01*
X140834200Y-105383795D01*
X140745261Y-105169077D01*
X140580923Y-105004739D01*
X140366205Y-104915800D01*
X140133795Y-104915800D01*
X139919077Y-105004739D01*
X139804816Y-105119000D01*
X137517816Y-105119000D01*
X137155944Y-104757129D01*
X137134686Y-104725314D01*
X137008659Y-104641106D01*
X136897524Y-104619000D01*
X136860000Y-104611536D01*
X136822476Y-104619000D01*
X136817792Y-104619000D01*
X137039169Y-104397623D01*
X137218600Y-103964438D01*
X137218600Y-103600000D01*
X156366922Y-103600000D01*
X156366922Y-106400000D01*
X156384664Y-106489195D01*
X156435189Y-106564811D01*
X156510805Y-106615336D01*
X156600000Y-106633078D01*
X157800000Y-106633078D01*
X157889195Y-106615336D01*
X157964811Y-106564811D01*
X158015336Y-106489195D01*
X158033078Y-106400000D01*
X158033078Y-106102957D01*
X160009400Y-106102957D01*
X160009400Y-106497043D01*
X160160210Y-106861130D01*
X160438870Y-107139790D01*
X160802957Y-107290600D01*
X161197043Y-107290600D01*
X161561130Y-107139790D01*
X161839790Y-106861130D01*
X161990600Y-106497043D01*
X161990600Y-106102957D01*
X161839790Y-105738870D01*
X161561130Y-105460210D01*
X161197043Y-105309400D01*
X160802957Y-105309400D01*
X160438870Y-105460210D01*
X160160210Y-105738870D01*
X160009400Y-106102957D01*
X158033078Y-106102957D01*
X158033078Y-103600000D01*
X158015336Y-103510805D01*
X158010093Y-103502957D01*
X160009400Y-103502957D01*
X160009400Y-103897043D01*
X160160210Y-104261130D01*
X160438870Y-104539790D01*
X160802957Y-104690600D01*
X161197043Y-104690600D01*
X161561130Y-104539790D01*
X161839790Y-104261130D01*
X161990600Y-103897043D01*
X161990600Y-103502957D01*
X161839790Y-103138870D01*
X161561130Y-102860210D01*
X161197043Y-102709400D01*
X160802957Y-102709400D01*
X160438870Y-102860210D01*
X160160210Y-103138870D01*
X160009400Y-103502957D01*
X158010093Y-103502957D01*
X157964811Y-103435189D01*
X157889195Y-103384664D01*
X157800000Y-103366922D01*
X156600000Y-103366922D01*
X156510805Y-103384664D01*
X156435189Y-103435189D01*
X156384664Y-103510805D01*
X156366922Y-103600000D01*
X137218600Y-103600000D01*
X137218600Y-103495562D01*
X137039169Y-103062377D01*
X136707623Y-102730831D01*
X136274438Y-102551400D01*
X135805562Y-102551400D01*
X135372377Y-102730831D01*
X135040831Y-103062377D01*
X134861400Y-103495562D01*
X134861400Y-103964438D01*
X135040831Y-104397623D01*
X135262208Y-104619000D01*
X134927815Y-104619000D01*
X134559877Y-104251062D01*
X134678600Y-103964438D01*
X134678600Y-103495562D01*
X134499169Y-103062377D01*
X134167623Y-102730831D01*
X133734438Y-102551400D01*
X133265562Y-102551400D01*
X132832377Y-102730831D01*
X132500831Y-103062377D01*
X132321400Y-103495562D01*
X129753600Y-103495562D01*
X129753600Y-100955562D01*
X132321400Y-100955562D01*
X132321400Y-101424438D01*
X132500831Y-101857623D01*
X132832377Y-102189169D01*
X133265562Y-102368600D01*
X133734438Y-102368600D01*
X134167623Y-102189169D01*
X134499169Y-101857623D01*
X134678600Y-101424438D01*
X134678600Y-100955562D01*
X134861400Y-100955562D01*
X134861400Y-101424438D01*
X135040831Y-101857623D01*
X135372377Y-102189169D01*
X135805562Y-102368600D01*
X136274438Y-102368600D01*
X136707623Y-102189169D01*
X137039169Y-101857623D01*
X137218600Y-101424438D01*
X137218600Y-100955562D01*
X137039169Y-100522377D01*
X136707623Y-100190831D01*
X136274438Y-100011400D01*
X135805562Y-100011400D01*
X135372377Y-100190831D01*
X135040831Y-100522377D01*
X134861400Y-100955562D01*
X134678600Y-100955562D01*
X134499169Y-100522377D01*
X134167623Y-100190831D01*
X133734438Y-100011400D01*
X133265562Y-100011400D01*
X132832377Y-100190831D01*
X132500831Y-100522377D01*
X132321400Y-100955562D01*
X129753600Y-100955562D01*
X129753600Y-98415562D01*
X132321400Y-98415562D01*
X132321400Y-98884438D01*
X132500831Y-99317623D01*
X132832377Y-99649169D01*
X133265562Y-99828600D01*
X133734438Y-99828600D01*
X134167623Y-99649169D01*
X134499169Y-99317623D01*
X134678600Y-98884438D01*
X134678600Y-98415562D01*
X134499169Y-97982377D01*
X134216792Y-97700000D01*
X134806922Y-97700000D01*
X134806922Y-99600000D01*
X134824664Y-99689195D01*
X134875189Y-99764811D01*
X134950805Y-99815336D01*
X135040000Y-99833078D01*
X137040000Y-99833078D01*
X137129195Y-99815336D01*
X137204811Y-99764811D01*
X137255336Y-99689195D01*
X137273078Y-99600000D01*
X137273078Y-99480000D01*
X143404355Y-99480000D01*
X143438006Y-99649169D01*
X143449697Y-99707943D01*
X143578816Y-99901185D01*
X143627597Y-99933779D01*
X145754738Y-102060921D01*
X145754739Y-102060923D01*
X145919077Y-102225261D01*
X145973280Y-102247713D01*
X146022056Y-102280304D01*
X146079593Y-102291749D01*
X146133795Y-102314200D01*
X146192462Y-102314200D01*
X146250000Y-102325645D01*
X146307537Y-102314200D01*
X146366205Y-102314200D01*
X146420408Y-102291749D01*
X146477943Y-102280304D01*
X146526718Y-102247713D01*
X146580923Y-102225261D01*
X146622410Y-102183774D01*
X146671184Y-102151184D01*
X146703774Y-102102410D01*
X146745261Y-102060923D01*
X146767713Y-102006718D01*
X146800304Y-101957943D01*
X146811749Y-101900408D01*
X146834200Y-101846205D01*
X146834200Y-101787537D01*
X146845645Y-101730000D01*
X146834200Y-101672462D01*
X146834200Y-101613795D01*
X146811749Y-101559593D01*
X146800304Y-101502056D01*
X146767713Y-101453280D01*
X146745261Y-101399077D01*
X146580923Y-101234739D01*
X146580921Y-101234738D01*
X144584200Y-99238018D01*
X144584200Y-98431800D01*
X145605616Y-98431800D01*
X145669077Y-98495261D01*
X145883795Y-98584200D01*
X146116205Y-98584200D01*
X146330923Y-98495261D01*
X146495261Y-98330923D01*
X146584200Y-98116205D01*
X146584200Y-97883795D01*
X146495261Y-97669077D01*
X146426184Y-97600000D01*
X149174355Y-97600000D01*
X149185800Y-97657538D01*
X149185801Y-100442459D01*
X149174355Y-100500000D01*
X149196117Y-100609400D01*
X149219697Y-100727943D01*
X149348816Y-100921185D01*
X149397597Y-100953779D01*
X150154738Y-101710921D01*
X150154739Y-101710923D01*
X150319077Y-101875261D01*
X150373283Y-101897714D01*
X150422056Y-101930303D01*
X150479590Y-101941747D01*
X150533795Y-101964200D01*
X150592464Y-101964200D01*
X150650000Y-101975645D01*
X150707536Y-101964200D01*
X150766205Y-101964200D01*
X150820411Y-101941747D01*
X150877943Y-101930303D01*
X150926715Y-101897715D01*
X150980923Y-101875261D01*
X151022411Y-101833773D01*
X151071184Y-101801184D01*
X151103773Y-101752411D01*
X151145261Y-101710923D01*
X151167715Y-101656715D01*
X151200303Y-101607943D01*
X151211747Y-101550411D01*
X151234200Y-101496205D01*
X151234200Y-101437536D01*
X151241078Y-101402957D01*
X160009400Y-101402957D01*
X160009400Y-101797043D01*
X160160210Y-102161130D01*
X160438870Y-102439790D01*
X160802957Y-102590600D01*
X161197043Y-102590600D01*
X161561130Y-102439790D01*
X161839790Y-102161130D01*
X161990600Y-101797043D01*
X161990600Y-101402957D01*
X162509400Y-101402957D01*
X162509400Y-101797043D01*
X162660210Y-102161130D01*
X162938870Y-102439790D01*
X163302957Y-102590600D01*
X163697043Y-102590600D01*
X164061130Y-102439790D01*
X164339790Y-102161130D01*
X164490600Y-101797043D01*
X164490600Y-101402957D01*
X164339790Y-101038870D01*
X164061130Y-100760210D01*
X163697043Y-100609400D01*
X163302957Y-100609400D01*
X162938870Y-100760210D01*
X162660210Y-101038870D01*
X162509400Y-101402957D01*
X161990600Y-101402957D01*
X161839790Y-101038870D01*
X161561130Y-100760210D01*
X161197043Y-100609400D01*
X160802957Y-100609400D01*
X160438870Y-100760210D01*
X160160210Y-101038870D01*
X160009400Y-101402957D01*
X151241078Y-101402957D01*
X151245645Y-101380000D01*
X151234200Y-101322464D01*
X151234200Y-101263795D01*
X151211747Y-101209590D01*
X151200303Y-101152056D01*
X151167714Y-101103283D01*
X151145261Y-101049077D01*
X150980923Y-100884739D01*
X150980921Y-100884738D01*
X150354200Y-100258018D01*
X150354200Y-98184200D01*
X153842464Y-98184200D01*
X153900000Y-98195645D01*
X153957536Y-98184200D01*
X153957537Y-98184200D01*
X154127943Y-98150304D01*
X154321185Y-98021185D01*
X154353781Y-97972401D01*
X154676183Y-97650000D01*
X156366922Y-97650000D01*
X156366922Y-98850000D01*
X156384664Y-98939195D01*
X156435189Y-99014811D01*
X156510805Y-99065336D01*
X156600000Y-99083078D01*
X159400000Y-99083078D01*
X159489195Y-99065336D01*
X159564811Y-99014811D01*
X159615336Y-98939195D01*
X159633078Y-98850000D01*
X159633078Y-97650000D01*
X159615336Y-97560805D01*
X159564811Y-97485189D01*
X159489195Y-97434664D01*
X159400000Y-97416922D01*
X156600000Y-97416922D01*
X156510805Y-97434664D01*
X156435189Y-97485189D01*
X156384664Y-97560805D01*
X156366922Y-97650000D01*
X154676183Y-97650000D01*
X154953776Y-97372408D01*
X154995261Y-97330923D01*
X155017713Y-97276718D01*
X155050303Y-97227944D01*
X155061748Y-97170410D01*
X155084200Y-97116205D01*
X155084200Y-97057537D01*
X155095645Y-97000001D01*
X155084200Y-96942465D01*
X155084200Y-96883795D01*
X155061747Y-96829589D01*
X155050303Y-96772057D01*
X155017715Y-96723285D01*
X154995261Y-96669077D01*
X154953773Y-96627589D01*
X154921184Y-96578816D01*
X154872411Y-96546227D01*
X154830923Y-96504739D01*
X154776715Y-96482285D01*
X154727943Y-96449697D01*
X154670411Y-96438253D01*
X154616205Y-96415800D01*
X154557535Y-96415800D01*
X154499999Y-96404355D01*
X154442463Y-96415800D01*
X154383795Y-96415800D01*
X154329590Y-96438252D01*
X154272056Y-96449697D01*
X154223282Y-96482287D01*
X154169077Y-96504739D01*
X154127592Y-96546224D01*
X153658017Y-97015800D01*
X149827537Y-97015800D01*
X149770000Y-97004355D01*
X149712463Y-97015800D01*
X149653795Y-97015800D01*
X149599592Y-97038251D01*
X149542057Y-97049696D01*
X149493280Y-97082287D01*
X149439077Y-97104739D01*
X149397593Y-97146223D01*
X149348815Y-97178815D01*
X149316223Y-97227593D01*
X149274739Y-97269077D01*
X149252287Y-97323280D01*
X149219696Y-97372057D01*
X149208251Y-97429592D01*
X149185800Y-97483795D01*
X149185800Y-97542463D01*
X149174355Y-97600000D01*
X146426184Y-97600000D01*
X146330923Y-97504739D01*
X146116205Y-97415800D01*
X145883795Y-97415800D01*
X145669077Y-97504739D01*
X145605616Y-97568200D01*
X144405298Y-97568200D01*
X144372407Y-97546223D01*
X144330923Y-97504739D01*
X144276718Y-97482287D01*
X144227942Y-97449696D01*
X144170408Y-97438252D01*
X144116205Y-97415800D01*
X144057537Y-97415800D01*
X144000000Y-97404355D01*
X143942463Y-97415800D01*
X143883795Y-97415800D01*
X143829592Y-97438251D01*
X143772057Y-97449696D01*
X143723280Y-97482287D01*
X143669077Y-97504739D01*
X143627593Y-97546223D01*
X143578815Y-97578815D01*
X143546223Y-97627593D01*
X143504739Y-97669077D01*
X143482287Y-97723282D01*
X143449696Y-97772058D01*
X143438252Y-97829591D01*
X143415800Y-97883795D01*
X143415800Y-97942464D01*
X143415801Y-99422459D01*
X143404355Y-99480000D01*
X137273078Y-99480000D01*
X137273078Y-97700000D01*
X137255336Y-97610805D01*
X137204811Y-97535189D01*
X137129195Y-97484664D01*
X137040000Y-97466922D01*
X135040000Y-97466922D01*
X134950805Y-97484664D01*
X134875189Y-97535189D01*
X134824664Y-97610805D01*
X134806922Y-97700000D01*
X134216792Y-97700000D01*
X134167623Y-97650831D01*
X133734438Y-97471400D01*
X133265562Y-97471400D01*
X132832377Y-97650831D01*
X132500831Y-97982377D01*
X132321400Y-98415562D01*
X129753600Y-98415562D01*
X129753600Y-95143600D01*
X167246400Y-95143600D01*
X167246400Y-97671390D01*
X167246400Y-97671390D01*
G37*
X167246400Y-97671390D02*
X165263300Y-97671390D01*
X165263300Y-112328609D01*
X167246401Y-112328609D01*
X167246401Y-114856400D01*
X129753600Y-114856400D01*
X129753600Y-111115562D01*
X132321400Y-111115562D01*
X132321400Y-111584438D01*
X132500831Y-112017623D01*
X132832377Y-112349169D01*
X133265562Y-112528600D01*
X133734438Y-112528600D01*
X134167623Y-112349169D01*
X134499169Y-112017623D01*
X134678600Y-111584438D01*
X134678600Y-111115562D01*
X134861400Y-111115562D01*
X134861400Y-111584438D01*
X135040831Y-112017623D01*
X135372377Y-112349169D01*
X135805562Y-112528600D01*
X136274438Y-112528600D01*
X136707623Y-112349169D01*
X137039169Y-112017623D01*
X137218600Y-111584438D01*
X137218600Y-111115562D01*
X137039169Y-110682377D01*
X136707623Y-110350831D01*
X136274438Y-110171400D01*
X135805562Y-110171400D01*
X135372377Y-110350831D01*
X135040831Y-110682377D01*
X134861400Y-111115562D01*
X134678600Y-111115562D01*
X134499169Y-110682377D01*
X134167623Y-110350831D01*
X133734438Y-110171400D01*
X133265562Y-110171400D01*
X132832377Y-110350831D01*
X132500831Y-110682377D01*
X132321400Y-111115562D01*
X129753600Y-111115562D01*
X129753600Y-109654435D01*
X132727407Y-109654435D01*
X132835393Y-109811178D01*
X133269118Y-109989302D01*
X133737992Y-109987888D01*
X134164607Y-109811178D01*
X134272593Y-109654435D01*
X135267407Y-109654435D01*
X135375393Y-109811178D01*
X135809118Y-109989302D01*
X136277992Y-109987888D01*
X136704607Y-109811178D01*
X136812593Y-109654435D01*
X136040000Y-108881842D01*
X135267407Y-109654435D01*
X134272593Y-109654435D01*
X133500000Y-108881842D01*
X132727407Y-109654435D01*
X129753600Y-109654435D01*
X129753600Y-108579118D01*
X132320698Y-108579118D01*
X132322112Y-109047992D01*
X132498822Y-109474607D01*
X132655565Y-109582593D01*
X133428158Y-108810000D01*
X133571842Y-108810000D01*
X134344435Y-109582593D01*
X134501178Y-109474607D01*
X134679302Y-109040882D01*
X134677910Y-108579118D01*
X134860698Y-108579118D01*
X134862112Y-109047992D01*
X135038822Y-109474607D01*
X135195565Y-109582593D01*
X135968158Y-108810000D01*
X136111842Y-108810000D01*
X136884435Y-109582593D01*
X137041178Y-109474607D01*
X137181144Y-109133795D01*
X142915800Y-109133795D01*
X142915800Y-109366205D01*
X143004739Y-109580923D01*
X143169077Y-109745261D01*
X143383795Y-109834200D01*
X143616205Y-109834200D01*
X143830923Y-109745261D01*
X143945184Y-109631000D01*
X144532185Y-109631000D01*
X147119001Y-112217817D01*
X147119000Y-113554816D01*
X147004739Y-113669077D01*
X146915800Y-113883795D01*
X146915800Y-114116205D01*
X147004739Y-114330923D01*
X147169077Y-114495261D01*
X147383795Y-114584200D01*
X147616205Y-114584200D01*
X147830923Y-114495261D01*
X147995261Y-114330923D01*
X148084200Y-114116205D01*
X148084200Y-113883795D01*
X147995261Y-113669077D01*
X147881000Y-113554816D01*
X147881000Y-112802957D01*
X152509400Y-112802957D01*
X152509400Y-113197043D01*
X152660210Y-113561130D01*
X152938870Y-113839790D01*
X153302957Y-113990600D01*
X153697043Y-113990600D01*
X154061130Y-113839790D01*
X154339790Y-113561130D01*
X154490600Y-113197043D01*
X154490600Y-112802957D01*
X154339790Y-112438870D01*
X154061130Y-112160210D01*
X153697043Y-112009400D01*
X153302957Y-112009400D01*
X152938870Y-112160210D01*
X152660210Y-112438870D01*
X152509400Y-112802957D01*
X147881000Y-112802957D01*
X147881000Y-112097523D01*
X147888464Y-112059999D01*
X147858894Y-111911341D01*
X147795941Y-111817125D01*
X147774686Y-111785314D01*
X147742874Y-111764058D01*
X147128816Y-111150000D01*
X156366922Y-111150000D01*
X156366922Y-112350000D01*
X156384664Y-112439195D01*
X156435189Y-112514811D01*
X156510805Y-112565336D01*
X156600000Y-112583078D01*
X159400000Y-112583078D01*
X159489195Y-112565336D01*
X159564811Y-112514811D01*
X159615336Y-112439195D01*
X159633078Y-112350000D01*
X159633078Y-111150000D01*
X159615336Y-111060805D01*
X159564811Y-110985189D01*
X159489195Y-110934664D01*
X159400000Y-110916922D01*
X156600000Y-110916922D01*
X156510805Y-110934664D01*
X156435189Y-110985189D01*
X156384664Y-111060805D01*
X156366922Y-111150000D01*
X147128816Y-111150000D01*
X145087551Y-109108735D01*
X160363108Y-109108735D01*
X160448182Y-109245939D01*
X160813914Y-109392717D01*
X161207975Y-109388363D01*
X161551818Y-109245939D01*
X161636892Y-109108735D01*
X161000000Y-108471842D01*
X160363108Y-109108735D01*
X145087551Y-109108735D01*
X144985944Y-109007129D01*
X144964686Y-108975314D01*
X144838659Y-108891106D01*
X144727524Y-108869000D01*
X144690000Y-108861536D01*
X144652476Y-108869000D01*
X143945184Y-108869000D01*
X143830923Y-108754739D01*
X143616205Y-108665800D01*
X143383795Y-108665800D01*
X143169077Y-108754739D01*
X143004739Y-108919077D01*
X142915800Y-109133795D01*
X137181144Y-109133795D01*
X137219302Y-109040882D01*
X137217888Y-108572008D01*
X137069561Y-108213914D01*
X160007283Y-108213914D01*
X160011637Y-108607975D01*
X160154061Y-108951818D01*
X160291265Y-109036892D01*
X160928158Y-108400000D01*
X161071842Y-108400000D01*
X161708735Y-109036892D01*
X161845939Y-108951818D01*
X161992717Y-108586086D01*
X161988484Y-108202957D01*
X162509400Y-108202957D01*
X162509400Y-108597043D01*
X162660210Y-108961130D01*
X162938870Y-109239790D01*
X163302957Y-109390600D01*
X163697043Y-109390600D01*
X164061130Y-109239790D01*
X164339790Y-108961130D01*
X164490600Y-108597043D01*
X164490600Y-108202957D01*
X164339790Y-107838870D01*
X164061130Y-107560210D01*
X163697043Y-107409400D01*
X163302957Y-107409400D01*
X162938870Y-107560210D01*
X162660210Y-107838870D01*
X162509400Y-108202957D01*
X161988484Y-108202957D01*
X161988363Y-108192025D01*
X161845939Y-107848182D01*
X161708735Y-107763108D01*
X161071842Y-108400000D01*
X160928158Y-108400000D01*
X160291265Y-107763108D01*
X160154061Y-107848182D01*
X160007283Y-108213914D01*
X137069561Y-108213914D01*
X137041178Y-108145393D01*
X136884435Y-108037407D01*
X136111842Y-108810000D01*
X135968158Y-108810000D01*
X135195565Y-108037407D01*
X135038822Y-108145393D01*
X134860698Y-108579118D01*
X134677910Y-108579118D01*
X134677888Y-108572008D01*
X134501178Y-108145393D01*
X134344435Y-108037407D01*
X133571842Y-108810000D01*
X133428158Y-108810000D01*
X132655565Y-108037407D01*
X132498822Y-108145393D01*
X132320698Y-108579118D01*
X129753600Y-108579118D01*
X129753600Y-107965565D01*
X132727407Y-107965565D01*
X133500000Y-108738158D01*
X134272593Y-107965565D01*
X135267407Y-107965565D01*
X136040000Y-108738158D01*
X136812593Y-107965565D01*
X136704607Y-107808822D01*
X136418361Y-107691265D01*
X160363108Y-107691265D01*
X161000000Y-108328158D01*
X161636892Y-107691265D01*
X161551818Y-107554061D01*
X161186086Y-107407283D01*
X160792025Y-107411637D01*
X160448182Y-107554061D01*
X160363108Y-107691265D01*
X136418361Y-107691265D01*
X136270882Y-107630698D01*
X135802008Y-107632112D01*
X135375393Y-107808822D01*
X135267407Y-107965565D01*
X134272593Y-107965565D01*
X134164607Y-107808822D01*
X133730882Y-107630698D01*
X133262008Y-107632112D01*
X132835393Y-107808822D01*
X132727407Y-107965565D01*
X129753600Y-107965565D01*
X129753600Y-106035562D01*
X132321400Y-106035562D01*
X132321400Y-106504438D01*
X132500831Y-106937623D01*
X132832377Y-107269169D01*
X133265562Y-107448600D01*
X133734438Y-107448600D01*
X134167623Y-107269169D01*
X134499169Y-106937623D01*
X134678600Y-106504438D01*
X134678600Y-106035562D01*
X134499169Y-105602377D01*
X134167623Y-105270831D01*
X133734438Y-105091400D01*
X133265562Y-105091400D01*
X132832377Y-105270831D01*
X132500831Y-105602377D01*
X132321400Y-106035562D01*
X129753600Y-106035562D01*
X129753600Y-103495562D01*
X132321400Y-103495562D01*
X132321400Y-103964438D01*
X132500831Y-104397623D01*
X132832377Y-104729169D01*
X133265562Y-104908600D01*
X133734438Y-104908600D01*
X134021062Y-104789877D01*
X134474056Y-105242871D01*
X134495314Y-105274686D01*
X134610037Y-105351341D01*
X134621341Y-105358894D01*
X134769999Y-105388464D01*
X134807523Y-105381000D01*
X135262208Y-105381000D01*
X135040831Y-105602377D01*
X134861400Y-106035562D01*
X134861400Y-106504438D01*
X135040831Y-106937623D01*
X135372377Y-107269169D01*
X135805562Y-107448600D01*
X136274438Y-107448600D01*
X136707623Y-107269169D01*
X137039169Y-106937623D01*
X137218600Y-106504438D01*
X137218600Y-106035562D01*
X137120196Y-105797993D01*
X137211341Y-105858894D01*
X137360000Y-105888464D01*
X137397524Y-105881000D01*
X139804816Y-105881000D01*
X139919077Y-105995261D01*
X140133795Y-106084200D01*
X140366205Y-106084200D01*
X140580923Y-105995261D01*
X140745261Y-105830923D01*
X140834200Y-105616205D01*
X140834200Y-105383795D01*
X140745261Y-105169077D01*
X140580923Y-105004739D01*
X140366205Y-104915800D01*
X140133795Y-104915800D01*
X139919077Y-105004739D01*
X139804816Y-105119000D01*
X137517816Y-105119000D01*
X137155944Y-104757129D01*
X137134686Y-104725314D01*
X137008659Y-104641106D01*
X136897524Y-104619000D01*
X136860000Y-104611536D01*
X136822476Y-104619000D01*
X136817792Y-104619000D01*
X137039169Y-104397623D01*
X137218600Y-103964438D01*
X137218600Y-103600000D01*
X156366922Y-103600000D01*
X156366922Y-106400000D01*
X156384664Y-106489195D01*
X156435189Y-106564811D01*
X156510805Y-106615336D01*
X156600000Y-106633078D01*
X157800000Y-106633078D01*
X157889195Y-106615336D01*
X157964811Y-106564811D01*
X158015336Y-106489195D01*
X158033078Y-106400000D01*
X158033078Y-106102957D01*
X160009400Y-106102957D01*
X160009400Y-106497043D01*
X160160210Y-106861130D01*
X160438870Y-107139790D01*
X160802957Y-107290600D01*
X161197043Y-107290600D01*
X161561130Y-107139790D01*
X161839790Y-106861130D01*
X161990600Y-106497043D01*
X161990600Y-106102957D01*
X161839790Y-105738870D01*
X161561130Y-105460210D01*
X161197043Y-105309400D01*
X160802957Y-105309400D01*
X160438870Y-105460210D01*
X160160210Y-105738870D01*
X160009400Y-106102957D01*
X158033078Y-106102957D01*
X158033078Y-103600000D01*
X158015336Y-103510805D01*
X158010093Y-103502957D01*
X160009400Y-103502957D01*
X160009400Y-103897043D01*
X160160210Y-104261130D01*
X160438870Y-104539790D01*
X160802957Y-104690600D01*
X161197043Y-104690600D01*
X161561130Y-104539790D01*
X161839790Y-104261130D01*
X161990600Y-103897043D01*
X161990600Y-103502957D01*
X161839790Y-103138870D01*
X161561130Y-102860210D01*
X161197043Y-102709400D01*
X160802957Y-102709400D01*
X160438870Y-102860210D01*
X160160210Y-103138870D01*
X160009400Y-103502957D01*
X158010093Y-103502957D01*
X157964811Y-103435189D01*
X157889195Y-103384664D01*
X157800000Y-103366922D01*
X156600000Y-103366922D01*
X156510805Y-103384664D01*
X156435189Y-103435189D01*
X156384664Y-103510805D01*
X156366922Y-103600000D01*
X137218600Y-103600000D01*
X137218600Y-103495562D01*
X137039169Y-103062377D01*
X136707623Y-102730831D01*
X136274438Y-102551400D01*
X135805562Y-102551400D01*
X135372377Y-102730831D01*
X135040831Y-103062377D01*
X134861400Y-103495562D01*
X134861400Y-103964438D01*
X135040831Y-104397623D01*
X135262208Y-104619000D01*
X134927815Y-104619000D01*
X134559877Y-104251062D01*
X134678600Y-103964438D01*
X134678600Y-103495562D01*
X134499169Y-103062377D01*
X134167623Y-102730831D01*
X133734438Y-102551400D01*
X133265562Y-102551400D01*
X132832377Y-102730831D01*
X132500831Y-103062377D01*
X132321400Y-103495562D01*
X129753600Y-103495562D01*
X129753600Y-100955562D01*
X132321400Y-100955562D01*
X132321400Y-101424438D01*
X132500831Y-101857623D01*
X132832377Y-102189169D01*
X133265562Y-102368600D01*
X133734438Y-102368600D01*
X134167623Y-102189169D01*
X134499169Y-101857623D01*
X134678600Y-101424438D01*
X134678600Y-100955562D01*
X134861400Y-100955562D01*
X134861400Y-101424438D01*
X135040831Y-101857623D01*
X135372377Y-102189169D01*
X135805562Y-102368600D01*
X136274438Y-102368600D01*
X136707623Y-102189169D01*
X137039169Y-101857623D01*
X137218600Y-101424438D01*
X137218600Y-100955562D01*
X137039169Y-100522377D01*
X136707623Y-100190831D01*
X136274438Y-100011400D01*
X135805562Y-100011400D01*
X135372377Y-100190831D01*
X135040831Y-100522377D01*
X134861400Y-100955562D01*
X134678600Y-100955562D01*
X134499169Y-100522377D01*
X134167623Y-100190831D01*
X133734438Y-100011400D01*
X133265562Y-100011400D01*
X132832377Y-100190831D01*
X132500831Y-100522377D01*
X132321400Y-100955562D01*
X129753600Y-100955562D01*
X129753600Y-98415562D01*
X132321400Y-98415562D01*
X132321400Y-98884438D01*
X132500831Y-99317623D01*
X132832377Y-99649169D01*
X133265562Y-99828600D01*
X133734438Y-99828600D01*
X134167623Y-99649169D01*
X134499169Y-99317623D01*
X134678600Y-98884438D01*
X134678600Y-98415562D01*
X134499169Y-97982377D01*
X134216792Y-97700000D01*
X134806922Y-97700000D01*
X134806922Y-99600000D01*
X134824664Y-99689195D01*
X134875189Y-99764811D01*
X134950805Y-99815336D01*
X135040000Y-99833078D01*
X137040000Y-99833078D01*
X137129195Y-99815336D01*
X137204811Y-99764811D01*
X137255336Y-99689195D01*
X137273078Y-99600000D01*
X137273078Y-99480000D01*
X143404355Y-99480000D01*
X143438006Y-99649169D01*
X143449697Y-99707943D01*
X143578816Y-99901185D01*
X143627597Y-99933779D01*
X145754738Y-102060921D01*
X145754739Y-102060923D01*
X145919077Y-102225261D01*
X145973280Y-102247713D01*
X146022056Y-102280304D01*
X146079593Y-102291749D01*
X146133795Y-102314200D01*
X146192462Y-102314200D01*
X146250000Y-102325645D01*
X146307537Y-102314200D01*
X146366205Y-102314200D01*
X146420408Y-102291749D01*
X146477943Y-102280304D01*
X146526718Y-102247713D01*
X146580923Y-102225261D01*
X146622410Y-102183774D01*
X146671184Y-102151184D01*
X146703774Y-102102410D01*
X146745261Y-102060923D01*
X146767713Y-102006718D01*
X146800304Y-101957943D01*
X146811749Y-101900408D01*
X146834200Y-101846205D01*
X146834200Y-101787537D01*
X146845645Y-101730000D01*
X146834200Y-101672462D01*
X146834200Y-101613795D01*
X146811749Y-101559593D01*
X146800304Y-101502056D01*
X146767713Y-101453280D01*
X146745261Y-101399077D01*
X146580923Y-101234739D01*
X146580921Y-101234738D01*
X144584200Y-99238018D01*
X144584200Y-98431800D01*
X145605616Y-98431800D01*
X145669077Y-98495261D01*
X145883795Y-98584200D01*
X146116205Y-98584200D01*
X146330923Y-98495261D01*
X146495261Y-98330923D01*
X146584200Y-98116205D01*
X146584200Y-97883795D01*
X146495261Y-97669077D01*
X146426184Y-97600000D01*
X149174355Y-97600000D01*
X149185800Y-97657538D01*
X149185801Y-100442459D01*
X149174355Y-100500000D01*
X149196117Y-100609400D01*
X149219697Y-100727943D01*
X149348816Y-100921185D01*
X149397597Y-100953779D01*
X150154738Y-101710921D01*
X150154739Y-101710923D01*
X150319077Y-101875261D01*
X150373283Y-101897714D01*
X150422056Y-101930303D01*
X150479590Y-101941747D01*
X150533795Y-101964200D01*
X150592464Y-101964200D01*
X150650000Y-101975645D01*
X150707536Y-101964200D01*
X150766205Y-101964200D01*
X150820411Y-101941747D01*
X150877943Y-101930303D01*
X150926715Y-101897715D01*
X150980923Y-101875261D01*
X151022411Y-101833773D01*
X151071184Y-101801184D01*
X151103773Y-101752411D01*
X151145261Y-101710923D01*
X151167715Y-101656715D01*
X151200303Y-101607943D01*
X151211747Y-101550411D01*
X151234200Y-101496205D01*
X151234200Y-101437536D01*
X151241078Y-101402957D01*
X160009400Y-101402957D01*
X160009400Y-101797043D01*
X160160210Y-102161130D01*
X160438870Y-102439790D01*
X160802957Y-102590600D01*
X161197043Y-102590600D01*
X161561130Y-102439790D01*
X161839790Y-102161130D01*
X161990600Y-101797043D01*
X161990600Y-101402957D01*
X162509400Y-101402957D01*
X162509400Y-101797043D01*
X162660210Y-102161130D01*
X162938870Y-102439790D01*
X163302957Y-102590600D01*
X163697043Y-102590600D01*
X164061130Y-102439790D01*
X164339790Y-102161130D01*
X164490600Y-101797043D01*
X164490600Y-101402957D01*
X164339790Y-101038870D01*
X164061130Y-100760210D01*
X163697043Y-100609400D01*
X163302957Y-100609400D01*
X162938870Y-100760210D01*
X162660210Y-101038870D01*
X162509400Y-101402957D01*
X161990600Y-101402957D01*
X161839790Y-101038870D01*
X161561130Y-100760210D01*
X161197043Y-100609400D01*
X160802957Y-100609400D01*
X160438870Y-100760210D01*
X160160210Y-101038870D01*
X160009400Y-101402957D01*
X151241078Y-101402957D01*
X151245645Y-101380000D01*
X151234200Y-101322464D01*
X151234200Y-101263795D01*
X151211747Y-101209590D01*
X151200303Y-101152056D01*
X151167714Y-101103283D01*
X151145261Y-101049077D01*
X150980923Y-100884739D01*
X150980921Y-100884738D01*
X150354200Y-100258018D01*
X150354200Y-98184200D01*
X153842464Y-98184200D01*
X153900000Y-98195645D01*
X153957536Y-98184200D01*
X153957537Y-98184200D01*
X154127943Y-98150304D01*
X154321185Y-98021185D01*
X154353781Y-97972401D01*
X154676183Y-97650000D01*
X156366922Y-97650000D01*
X156366922Y-98850000D01*
X156384664Y-98939195D01*
X156435189Y-99014811D01*
X156510805Y-99065336D01*
X156600000Y-99083078D01*
X159400000Y-99083078D01*
X159489195Y-99065336D01*
X159564811Y-99014811D01*
X159615336Y-98939195D01*
X159633078Y-98850000D01*
X159633078Y-97650000D01*
X159615336Y-97560805D01*
X159564811Y-97485189D01*
X159489195Y-97434664D01*
X159400000Y-97416922D01*
X156600000Y-97416922D01*
X156510805Y-97434664D01*
X156435189Y-97485189D01*
X156384664Y-97560805D01*
X156366922Y-97650000D01*
X154676183Y-97650000D01*
X154953776Y-97372408D01*
X154995261Y-97330923D01*
X155017713Y-97276718D01*
X155050303Y-97227944D01*
X155061748Y-97170410D01*
X155084200Y-97116205D01*
X155084200Y-97057537D01*
X155095645Y-97000001D01*
X155084200Y-96942465D01*
X155084200Y-96883795D01*
X155061747Y-96829589D01*
X155050303Y-96772057D01*
X155017715Y-96723285D01*
X154995261Y-96669077D01*
X154953773Y-96627589D01*
X154921184Y-96578816D01*
X154872411Y-96546227D01*
X154830923Y-96504739D01*
X154776715Y-96482285D01*
X154727943Y-96449697D01*
X154670411Y-96438253D01*
X154616205Y-96415800D01*
X154557535Y-96415800D01*
X154499999Y-96404355D01*
X154442463Y-96415800D01*
X154383795Y-96415800D01*
X154329590Y-96438252D01*
X154272056Y-96449697D01*
X154223282Y-96482287D01*
X154169077Y-96504739D01*
X154127592Y-96546224D01*
X153658017Y-97015800D01*
X149827537Y-97015800D01*
X149770000Y-97004355D01*
X149712463Y-97015800D01*
X149653795Y-97015800D01*
X149599592Y-97038251D01*
X149542057Y-97049696D01*
X149493280Y-97082287D01*
X149439077Y-97104739D01*
X149397593Y-97146223D01*
X149348815Y-97178815D01*
X149316223Y-97227593D01*
X149274739Y-97269077D01*
X149252287Y-97323280D01*
X149219696Y-97372057D01*
X149208251Y-97429592D01*
X149185800Y-97483795D01*
X149185800Y-97542463D01*
X149174355Y-97600000D01*
X146426184Y-97600000D01*
X146330923Y-97504739D01*
X146116205Y-97415800D01*
X145883795Y-97415800D01*
X145669077Y-97504739D01*
X145605616Y-97568200D01*
X144405298Y-97568200D01*
X144372407Y-97546223D01*
X144330923Y-97504739D01*
X144276718Y-97482287D01*
X144227942Y-97449696D01*
X144170408Y-97438252D01*
X144116205Y-97415800D01*
X144057537Y-97415800D01*
X144000000Y-97404355D01*
X143942463Y-97415800D01*
X143883795Y-97415800D01*
X143829592Y-97438251D01*
X143772057Y-97449696D01*
X143723280Y-97482287D01*
X143669077Y-97504739D01*
X143627593Y-97546223D01*
X143578815Y-97578815D01*
X143546223Y-97627593D01*
X143504739Y-97669077D01*
X143482287Y-97723282D01*
X143449696Y-97772058D01*
X143438252Y-97829591D01*
X143415800Y-97883795D01*
X143415800Y-97942464D01*
X143415801Y-99422459D01*
X143404355Y-99480000D01*
X137273078Y-99480000D01*
X137273078Y-97700000D01*
X137255336Y-97610805D01*
X137204811Y-97535189D01*
X137129195Y-97484664D01*
X137040000Y-97466922D01*
X135040000Y-97466922D01*
X134950805Y-97484664D01*
X134875189Y-97535189D01*
X134824664Y-97610805D01*
X134806922Y-97700000D01*
X134216792Y-97700000D01*
X134167623Y-97650831D01*
X133734438Y-97471400D01*
X133265562Y-97471400D01*
X132832377Y-97650831D01*
X132500831Y-97982377D01*
X132321400Y-98415562D01*
X129753600Y-98415562D01*
X129753600Y-95143600D01*
X167246400Y-95143600D01*
X167246400Y-97671390D01*
G04 #@! TD*
M02*
