M48
;DRILL file {KiCad 5.0.2} date dim. 19 juil. 2020 07:30:32 CEST
;FORMAT={-:-/ absolute / inch / decimal}
FMAT,2
INCH,TZ
T1C0.0120
T2C0.0315
T3C0.0400
T4C0.0433
T5C0.0469
%
G90
G05
T1
X5.1181Y-3.7598
X5.1181Y-4.1339
X5.1575Y-4.4291
X5.4528Y-4.2677
X5.4528Y-4.5118
X5.4626Y-3.7598
X5.5217Y-4.1535
X5.5315Y-4.2677
X5.5315Y-4.5118
X5.5906Y-3.9075
X5.6102Y-4.2677
X5.6102Y-4.5118
X5.6496Y-4.3012
X5.6681Y-4.0551
X5.6693Y-3.8583
X5.689Y-4.2677
X5.689Y-4.5118
X5.7185Y-3.7598
X5.7283Y-4.3898
X5.748Y-3.8583
X5.7579Y-4.0051
X5.7677Y-4.4882
X5.8071Y-4.4882
X5.8465Y-3.9173
X5.8465Y-4.065
X5.8465Y-4.5118
X5.8661Y-4.4587
X5.8965Y-3.8425
X5.9252Y-4.5118
X5.9311Y-3.9913
X5.935Y-4.4587
X6.0039Y-4.1732
X6.0039Y-4.5118
X6.0827Y-3.8189
X6.0827Y-4.5118
X6.5551Y-4.5118
T2
X6.0433Y-4.4488
T3
X6.3386Y-4.
X6.3386Y-4.0827
X6.3386Y-4.185
X6.3386Y-4.2677
X6.437Y-4.
X6.437Y-4.2677
T4
X5.3559Y-3.8839
T5
X5.2559Y-3.8839
X5.2559Y-3.9839
X5.2559Y-4.0839
X5.2559Y-4.1839
X5.2559Y-4.2839
X5.2559Y-4.3839
X5.3559Y-3.9839
X5.3559Y-4.0839
X5.3559Y-4.1839
X5.3559Y-4.2839
X5.3559Y-4.3839
T2
X6.189Y-4.1063G85X6.189Y-4.1614
G05
X6.248Y-3.8681G85X6.1929Y-3.8681
G05
X6.248Y-4.3996G85X6.1929Y-4.3996
G05
T0
M30
